<?xml version="1.0" encoding="utf-8"?>
<!-- Generator: Adobe Illustrator 21.0.2, SVG Export Plug-In . SVG Version: 6.00 Build 0)  -->
<svg version="1.1" id="Ebene_1" xmlns="http://www.w3.org/2000/svg" xmlns:xlink="http://www.w3.org/1999/xlink" x="0px" y="0px"
	 viewBox="0 0 132.8 88.5" style="enable-background:new 0 0 132.8 88.5;" xml:space="preserve">
<style type="text/css">
	.st0{fill:#00E2BB;}
	.st1{fill:#688D9E;}
	.st2{fill:url(#SVGID_1_);}
</style>
<g>
	<g>
		<g id="Shape">
			<path class="st0" d="M12.8,49.9c-3.9,0-7,3.1-7,7s3.1,7,7,7c3.9,0,7-3.1,7-7S16.7,49.9,12.8,49.9z M12.8,62
				c-2.9,0-5.2-2.3-5.2-5.2s2.3-5.2,5.2-5.2S18,54,18,56.9S15.7,62,12.8,62z M38.5,50.4h-0.3V59c0,1.7-1.4,3-3,3s-3-1.3-3-3v-8.7
				h-1.8V59c0,1.7-1.4,3-3,3s-3-1.3-3-3v-8.7h-1.8V59c0,2.6,2.2,4.8,4.8,4.8c1.6,0,3-0.8,3.9-2c0.9,1.2,2.3,2,3.9,2
				c2.7,0,4.8-2.2,4.8-4.8v-8.7H38.5L38.5,50.4z M49.7,49.8c-3.9,0-7,3.1-7,7v6.5h1.8v-6.5c0-2.9,2.3-5.2,5.2-5.2s5.2,2.3,5.2,5.2
				v6.5h1.8v-6.5C56.7,53,53.6,49.8,49.7,49.8z"/>
		</g>
		<path class="st1" d="M87,49.9c-3.9,0-7,3.1-7,7s3.1,7,7,7c3.9,0,7-3.1,7-7S90.9,49.9,87,49.9z M87,62c-2.9,0-5.2-2.3-5.2-5.2
			s2.3-5.2,5.2-5.2s5.2,2.3,5.2,5.2S89.9,62,87,62z M108.8,50.4h-0.3v6.5c0,2.9-2.3,5.2-5.2,5.2s-5.2-2.3-5.2-5.2v-6.5h-1.8v6.5
			c0,3.8,3.1,7,7,7c3.9,0,7-3.1,7-7v-6.5H108.8L108.8,50.4z M126.7,50.8V39.3h-1.8v10.5l-5.3,0c-3.9,0-7,3.1-7,7s3.1,7,7,7h2.2
			c2.2,0,4.8-2.1,4.9-4.8C126.8,57.2,126.7,51.8,126.7,50.8z M124.9,59c0,1.6-1.8,3-3.1,3h-2.2c-2.9,0-5.2-2.3-5.2-5.2
			c0-2.9,2.3-5.2,5.2-5.2l5.3,0C124.9,53.3,125,57.4,124.9,59z M75.4,59V45.3c-0.6-0.3-1.2-0.7-1.8-1.1V59c0,2.6,2.2,4.8,4.8,4.8
			h0.3V62h-0.3C76.7,62,75.4,60.7,75.4,59L75.4,59z M61.1,53.2c0-2.7,1.2-5.1,3.1-6.7c-0.6-0.2-1.2-0.5-1.7-0.9
			c-2,1.9-3.3,4.6-3.3,7.6c0,5.9,4.8,10.6,10.7,10.6h0.3V62h-0.3C65,62,61.1,58.1,61.1,53.2L61.1,53.2z"/>
		
			<linearGradient id="SVGID_1_" gradientUnits="userSpaceOnUse" x1="-606.8605" y1="423.1625" x2="-606.8605" y2="422.1544" gradientTransform="matrix(72.042 0 0 -38.79 43801.5 16421.3574)">
			<stop  offset="0" style="stop-color:#C7DAE4"/>
			<stop  offset="1" style="stop-color:#9FB7C5"/>
		</linearGradient>
		<path class="st2" d="M61.4,18.9c-0.4-0.7-0.7-1.6-0.7-2.5c0-2.8,2.3-5.1,5.1-5.1c1,0,2,0.3,2.8,0.8c-0.6,1.3-0.9,2.8-0.9,4.4
			c0,0.3,0,0.6,0,0.9l-0.6,0C65.1,17.5,63.1,18,61.4,18.9L61.4,18.9z M60.3,38.6c-2.9-2.1-4.9-5.6-4.9-9.5c0-1,0.1-2,0.4-2.9l-0.3,0
			c-5.4,0-9.8,4.4-9.8,9.7s4.4,9.7,9.8,9.7c2.1,0,4-0.6,5.5-1.7c-0.7-1-1-2.2-1-3.5C60,39.8,60.1,39.2,60.3,38.6z M60.8,37.5
			c0.9-1.7,2.5-2.9,4.4-3.3c0.2,0,0.4-0.1,0.5-0.1c0.2,0,0.4,0,0.6,0l0.3,0c0.3,0,0.6,0,0.9,0.1c-0.1-0.7-0.1-1.3-0.1-2
			c0-3.3,1.1-6.3,2.9-8.7c-0.4-0.5-0.8-1.1-1.1-1.6l-0.3-0.5l-0.2-0.5c-0.3-0.7-0.5-1.4-0.6-2.2c-0.2,0-0.5,0-0.7,0
			c-1.8,0-3.6,0.5-5.1,1.3l-0.5,0.3l-0.5,0.3c-1.7,1.2-3.1,2.9-3.8,4.8l-0.2,0.5l-0.2,0.5c-0.2,0.9-0.4,1.8-0.4,2.8
			C56.6,32.6,58.2,35.6,60.8,37.5L60.8,37.5z M95,25.1c1.4-0.7,3-1.2,4.7-1.3c-0.4-5-4.6-8.9-9.7-8.9l-0.6,0
			c0.1,0.6,0.1,1.1,0.1,1.7c0,0.9-0.1,1.8-0.3,2.6C91.6,20.6,93.7,22.6,95,25.1L95,25.1z M69,18.2l0.1,0.6c0.1,0.4,0.2,0.9,0.4,1.3
			l0.2,0.5l0.3,0.5c0.3,0.5,0.6,1,0.9,1.4c0.7-0.8,1.4-1.5,2.3-2.1l0.5-0.3l0.5-0.3c2.2-1.4,4.9-2.3,7.7-2.3l0.2,0l0.6,0
			c0.3,0,0.5,0,0.8,0c1.7,0.2,3.3,0.6,4.8,1.3c0.2-0.7,0.2-1.4,0.2-2.1c0-0.5,0-1.1-0.1-1.6l-0.1-0.5L88,14
			c-1.2-4.1-4.9-7.1-9.4-7.1c-3.7,0-6.9,2-8.6,5l-0.3,0.5L69.6,13c-0.5,1.1-0.7,2.3-0.7,3.6c0,0.3,0,0.6,0,1L69,18.2L69,18.2z
			 M113,34.6c-0.3,0-0.6,0-0.9,0.1c0,0.2,0,0.5,0,0.7c0,3.1-1.2,5.9-3.2,8c1,1.1,2.4,1.8,4,1.8c3,0,5.4-2.4,5.4-5.3
			C118.4,37,116,34.6,113,34.6L113,34.6z M111.1,35l0-0.6l-0.1-0.6c-0.7-5-5-8.8-10.1-9l-0.4,0l-0.2,0l-0.6,0
			c-1.5,0.1-2.9,0.5-4.2,1.2c0.8,1.7,1.2,3.5,1.3,5.5l0,0.6l0,0.2c0,0.2,0,0.5,0,0.7c-0.2,3.7-1.8,7-4.2,9.4
			c1.9,2.2,4.8,3.5,7.9,3.5c2.7,0,5.2-1,7-2.7l0.4-0.4l0.4-0.4c1.7-1.9,2.8-4.4,2.8-7.1L111.1,35L111.1,35z M69.5,40l-0.3-0.5
			c-0.8-1.3-1.3-2.7-1.6-4.2c-0.4-0.1-0.7-0.1-1.1-0.1l-0.1,0c-0.2,0-0.4,0-0.6,0c-0.2,0-0.4,0.1-0.5,0.1c-1.6,0.4-2.9,1.4-3.6,2.8
			c-0.1,0.2-0.2,0.3-0.2,0.5c-0.1,0.2-0.1,0.4-0.2,0.5c-0.1,0.4-0.2,0.8-0.2,1.3c0,1,0.3,2,0.8,2.8c0.1,0.2,0.2,0.3,0.3,0.5
			c0.1,0.1,0.2,0.3,0.4,0.4c1,1,2.3,1.7,3.9,1.7c2.3,0,4.2-1.4,5-3.4c-0.6-0.6-1.1-1.3-1.6-2L69.5,40L69.5,40z M95.7,33.2
			c0-0.2,0-0.5,0-0.7l0-0.4c0-2-0.4-3.8-1.2-5.5l-0.2-0.5l-0.3-0.5c-1.2-2.2-3-4.1-5.2-5.3l-0.5-0.3l-0.5-0.3
			c-1.7-0.8-3.5-1.2-5.5-1.3l-0.3,0l-0.4,0c-0.2,0-0.5,0-0.7,0c-2.2,0.2-4.2,0.8-5.9,1.9l-0.5,0.3L74,21.1c-0.9,0.7-1.7,1.4-2.5,2.3
			l-0.4,0.4l-0.3,0.4c-1.6,2.2-2.5,5-2.5,7.9c0,0.8,0.1,1.5,0.2,2.3l0.1,0.6c0.1,0.2,0.1,0.5,0.2,0.7c0.3,1.2,0.9,2.4,1.5,3.5
			l0.3,0.5l0.3,0.5c0.3,0.3,0.5,0.7,0.8,1c0.2,0.2,0.3,0.3,0.5,0.5l0.5,0.4c2.4,2.2,5.7,3.6,9.3,3.6c3.4,0,6.6-1.3,9-3.4l0.4-0.4
			l0.4-0.4c2-2.1,3.4-4.7,3.7-7.7C95.6,33.7,95.7,33.4,95.7,33.2L95.7,33.2z"/>
	</g>
	<g>
		<g>
			<path class="st1" d="M34.8,78.3c0,1.3-0.3,2.3-1,3s-1.5,1-2.7,1c-1.2,0-2.1-0.3-2.7-1c-0.6-0.7-1-1.7-1-3c0-1.3,0.3-2.3,1-3
				c0.6-0.7,1.6-1,2.7-1c1.2,0,2.1,0.3,2.7,1C34.5,76,34.8,77,34.8,78.3z M29.2,78.3c0,0.9,0.2,1.5,0.5,2c0.3,0.4,0.8,0.7,1.5,0.7
				c1.3,0,2-0.9,2-2.6c0-1.7-0.7-2.6-2-2.6c-0.7,0-1.1,0.2-1.5,0.7C29.3,76.8,29.2,77.4,29.2,78.3z"/>
			<path class="st1" d="M50.8,82.2h-2.1l-3.4-5.9h0c0.1,1,0.1,1.8,0.1,2.2v3.6h-1.5v-7.7H46l3.4,5.8h0c-0.1-1-0.1-1.7-0.1-2.1v-3.7
				h1.5V82.2z"/>
			<path class="st1" d="M60.2,82.2v-7.7h1.6v6.4H65v1.4H60.2z"/>
			<path class="st1" d="M73.8,82.2v-7.7h1.6v7.7H73.8z"/>
			<path class="st1" d="M91.8,82.2h-2.1l-3.4-5.9h0c0.1,1,0.1,1.8,0.1,2.2v3.6h-1.5v-7.7H87l3.4,5.8h0c-0.1-1-0.1-1.7-0.1-2.1v-3.7
				h1.5V82.2z"/>
			<path class="st1" d="M105.7,82.2h-4.5v-7.7h4.5v1.3h-2.8v1.7h2.6v1.3h-2.6v2h2.8V82.2z"/>
		</g>
	</g>
</g>
<g>
</g>
<g>
</g>
<g>
</g>
<g>
</g>
<g>
</g>
<g>
</g>
</svg>
