<svg width="128" height="128" viewBox="0 0 128 128" xmlns="http://www.w3.org/2000/svg">
  <!-- Фон в стиле облака -->
  <defs>
    <linearGradient id="cloudGradient" x1="0%" y1="0%" x2="0%" y2="100%">
      <stop offset="0%" stop-color="#4a86cf"/>
      <stop offset="100%" stop-color="#2c5aa0"/>
    </linearGradient>
    <filter id="shadow" x="-20%" y="-20%" width="140%" height="140%">
      <feDropShadow dx="2" dy="4" stdDeviation="4" flood-color="#000000" flood-opacity="0.3"/>
    </filter>
  </defs>
  
  <!-- Облако -->
  <path d="M40 80c-8.837 0-16-7.163-16-16s7.163-16 16-16c1.66 0 3.26.26 4.77.74-1.45-6.11-6.97-10.74-13.77-10.74-7.732 0-14 6.268-14 14 0 2.95.91 5.69 2.47 7.94C12.27 63.16 8 68.5 8 75c0 8.837 7.163 16 16 16h56c8.837 0 16-7.163 16-16s-7.163-16-16-16c-0.83 0-1.64.07-2.43.2-1.21-6.29-6.67-11.2-13.57-11.2-4.56 0-8.62 2.07-11.36 5.33C51.5 47.14 46.35 44 40.44 44c-8.28 0-15.14 6.01-16.44 13.86C20.89 59.55 16 65.86 16 73c0 8.84 7.16 16 16 16h8V80H40z" 
        fill="url(#cloudGradient)" filter="url(#shadow)"/>
  
  <!-- Текст/лого -->
  <text x="64" y="45" text-anchor="middle" font-family="Arial, sans-serif" 
        font-size="14" font-weight="bold" fill="white">oCIS</text>
</svg>